# xmcd CD database file
#
# Track frame offsets:
#	150
#	14299
#	26235
#	39187
#	52924
#	64539
#	75959
#	86618
#	96693
#	110394
#	129277
#	141571
#	154319
#	166165
#
# Disc length: 2461 seconds
#
# Revision: 0
# Processed by: cddbd v1.4PL0 Copyright (c) Steve Scherf et al.
# Submitted via: CDex 1.50beta9
#
DISCID=ac099b0e
DTITLE=Hot Club Quartette - The Hot Club Quartette
DYEAR=2002
DGENRE=Jazz
TTITLE0=Bouncin' Around
TTITLE1=I've Found a New Baby
TTITLE2=Si Tu Savais
TTITLE3=Dreams
TTITLE4=Billet Deux
TTITLE5=I'll See You In My Dreams
TTITLE6=Ballo Di Mezzanotte
TTITLE7=Novia
TTITLE8=Blue Drag
TTITLE9=Shanghai Lil
TTITLE10=Ultra Fox
TTITLE11=Russian Lullaby
TTITLE12=Margy
TTITLE13=What Is This Thing Called Love
EXTD=YEAR: 2002
EXTT0=
EXTT1=
EXTT2=
EXTT3=
EXTT4=
EXTT5=
EXTT6=
EXTT7=
EXTT8=
EXTT9=
EXTT10=
EXTT11=
EXTT12=
EXTT13=
PLAYORDER=
